<svg width="1937" height="255" viewBox="0 0 1937 255" fill="none" xmlns="http://www.w3.org/2000/svg">
<path d="M69.5162 17.25V222H20.2974V17.25H69.5162ZM275.251 17.25V222H226.032L153.61 94.5938V222H104.251V17.25H153.61L226.032 144.656V17.25H275.251ZM355.829 17.25V222H306.469V17.25H355.829ZM435.422 102.469V140.438H341.766V102.469H435.422ZM443.438 17.25V55.3594H341.766V17.25H443.438ZM516.422 17.25V222H467.204V17.25H516.422ZM722.157 17.25V222H672.938L600.516 94.5938V222H551.157V17.25H600.516L672.938 144.656V17.25H722.157ZM805.829 17.25V222H756.61V17.25H805.829ZM935.485 17.25V222H886.126V17.25H935.485ZM997.079 17.25V55.3594H825.938V17.25H997.079ZM1057.41 17.25L1095.09 106.125L1132.92 17.25H1186.08L1120.27 148.453V222H1070.06V148.453L1004.11 17.25H1057.41Z" fill="#37447E"/>
<g filter="url(#filter0_i_11_111)">
<path d="M1304.56 21.25H1306.56V19.25H1304.56V21.25ZM1304.56 226V228H1306.56V226H1304.56ZM1255.2 226H1253.2V228H1255.2V226ZM1255.2 21.25V19.25H1253.2V21.25H1255.2ZM1366.16 21.25H1368.16V19.25H1366.16V21.25ZM1366.16 59.3594V61.3594H1368.16V59.3594H1366.16ZM1195.02 59.3594H1193.02V61.3594H1195.02V59.3594ZM1195.02 21.25V19.25H1193.02V21.25H1195.02ZM1302.56 21.25V226H1306.56V21.25H1302.56ZM1304.56 224H1255.2V228H1304.56V224ZM1257.2 226V21.25H1253.2V226H1257.2ZM1255.2 23.25H1304.56V19.25H1255.2V23.25ZM1364.16 21.25V59.3594H1368.16V21.25H1364.16ZM1366.16 57.3594H1195.02V61.3594H1366.16V57.3594ZM1197.02 59.3594V21.25H1193.02V59.3594H1197.02ZM1195.02 23.25H1366.16V19.25H1195.02V23.25ZM1456.72 64.2812L1458.63 64.8712L1458.68 64.7151L1458.7 64.5532L1456.72 64.2812ZM1406.8 226V228H1408.27L1408.71 226.59L1406.8 226ZM1353.78 226L1351.9 225.31L1350.92 228H1353.78V226ZM1429.02 21.25V19.25H1427.62L1427.14 20.5602L1429.02 21.25ZM1462.63 21.25L1464.61 21.522L1464.92 19.25H1462.63V21.25ZM1498.06 226L1496.15 226.591L1496.59 228H1498.06V226ZM1448 64.2812L1446.02 64.5786L1446.04 64.7282L1446.09 64.8727L1448 64.2812ZM1441.53 21.25V19.25H1439.21L1439.55 21.5473L1441.53 21.25ZM1475.56 21.25L1477.44 20.5568L1476.96 19.25H1475.56V21.25ZM1551.22 226V228H1554.09L1553.1 225.307L1551.22 226ZM1496.09 149.641H1498.09V147.641H1496.09V149.641ZM1496.09 187.75V189.75H1498.09V187.75H1496.09ZM1391.05 187.75H1389.05V189.75H1391.05V187.75ZM1391.05 149.641V147.641H1389.05V149.641H1391.05ZM1454.81 63.6913L1404.89 225.41L1408.71 226.59L1458.63 64.8712L1454.81 63.6913ZM1406.8 224H1353.78V228H1406.8V224ZM1355.66 226.69L1430.89 21.9398L1427.14 20.5602L1351.9 225.31L1355.66 226.69ZM1429.02 23.25H1462.63V19.25H1429.02V23.25ZM1460.64 20.978L1454.74 64.0093L1458.7 64.5532L1464.61 21.522L1460.64 20.978ZM1499.97 225.409L1449.91 63.6898L1446.09 64.8727L1496.15 226.591L1499.97 225.409ZM1449.98 63.9839L1443.51 20.9527L1439.55 21.5473L1446.02 64.5786L1449.98 63.9839ZM1441.53 23.25H1475.56V19.25H1441.53V23.25ZM1473.69 21.9432L1549.34 226.693L1553.1 225.307L1477.44 20.5568L1473.69 21.9432ZM1551.22 224H1498.06V228H1551.22V224ZM1494.09 149.641V187.75H1498.09V149.641H1494.09ZM1496.09 185.75H1391.05V189.75H1496.09V185.75ZM1393.05 187.75V149.641H1389.05V187.75H1393.05ZM1391.05 151.641H1496.09V147.641H1391.05V151.641ZM1670.33 163L1668.44 163.673L1668.45 163.684L1668.45 163.695L1670.33 163ZM1654.16 148.938L1653.26 150.726L1653.28 150.737L1653.3 150.747L1654.16 148.938ZM1635.59 141.625L1634.96 143.522L1634.97 143.525L1635.59 141.625ZM1609.58 131.5L1608.74 133.317L1608.75 133.32L1608.76 133.324L1609.58 131.5ZM1587.22 118.141L1585.98 119.713L1585.99 119.719L1586 119.724L1587.22 118.141ZM1571.61 100.141L1569.86 101.11L1569.87 101.12L1571.61 100.141ZM1571.75 52.1875L1573.5 53.1647L1573.5 53.1549L1571.75 52.1875ZM1588.2 34.0469L1589.36 35.6802L1589.36 35.6772L1588.2 34.0469ZM1613.23 22.5156L1613.76 24.4443L1613.77 24.4419L1613.78 24.4394L1613.23 22.5156ZM1684.25 26.3125L1683.42 28.1302L1683.42 28.1343L1683.43 28.1383L1684.25 26.3125ZM1711.25 48.3906L1709.59 49.5112L1709.6 49.5206L1709.61 49.5299L1711.25 48.3906ZM1721.09 82V84H1723.09V82H1721.09ZM1672.02 82H1670.02V84H1672.02V82ZM1668.78 68.3594L1667.01 69.2874L1667.02 69.3038L1667.03 69.32L1668.78 68.3594ZM1618.3 66.1094L1619.94 67.253L1619.95 67.2415L1619.95 67.23L1618.3 66.1094ZM1617.59 84.8125L1615.93 85.9219L1615.95 85.9577L1615.98 85.9925L1617.59 84.8125ZM1625.05 91.7031L1623.93 93.3597L1623.94 93.3672L1623.95 93.3745L1625.05 91.7031ZM1636.86 97.8906L1636.07 99.7289L1636.08 99.7318L1636.09 99.7346L1636.86 97.8906ZM1652.61 103.656L1652 105.56L1652 105.562L1652.61 103.656ZM1681.58 115.328L1680.67 117.109L1680.68 117.115L1680.69 117.121L1681.58 115.328ZM1703.09 129.812L1701.73 131.273L1701.74 131.284L1701.75 131.296L1703.09 129.812ZM1716.45 148.094L1714.62 148.897L1714.63 148.907L1714.63 148.918L1716.45 148.094ZM1700.42 213.906L1701.6 215.52L1701.61 215.514L1701.62 215.509L1700.42 213.906ZM1614.36 224.875L1613.84 226.807L1613.85 226.809L1613.86 226.812L1614.36 224.875ZM1586.8 212.5L1585.67 214.152L1585.68 214.157L1585.68 214.161L1586.8 212.5ZM1566.97 190.984L1565.22 191.952L1565.23 191.964L1565.23 191.975L1566.97 190.984ZM1559.66 159.625V157.625H1557.66V159.625H1559.66ZM1609.16 159.625H1611.16V157.625H1609.16V159.625ZM1618.58 184.797L1617.31 186.345L1617.33 186.356L1617.34 186.368L1618.58 184.797ZM1629.97 190.141L1629.48 192.081L1629.5 192.086L1629.52 192.09L1629.97 190.141ZM1660.63 189.016L1661.47 190.83L1661.48 190.822L1661.5 190.813L1660.63 189.016ZM1669.06 181.703L1670.78 182.724L1670.79 182.713L1670.8 182.701L1669.06 181.703ZM1673.73 171.578C1673.73 168.195 1673.24 165.095 1672.2 162.305L1668.45 163.695C1669.29 165.967 1669.73 168.586 1669.73 171.578H1673.73ZM1672.21 162.327C1671.14 159.325 1669.18 156.618 1666.45 154.193L1663.8 157.182C1666.13 159.257 1667.64 161.425 1668.44 163.673L1672.21 162.327ZM1666.45 154.193C1663.72 151.765 1659.88 149.419 1655.01 147.128L1653.3 150.747C1658 152.956 1661.47 155.11 1663.8 157.182L1666.45 154.193ZM1655.05 147.149C1650.24 144.745 1643.96 142.273 1636.22 139.725L1634.97 143.525C1642.61 146.04 1648.69 148.443 1653.26 150.726L1655.05 147.149ZM1636.23 139.728C1627.29 136.748 1618.68 133.397 1610.4 129.676L1608.76 133.324C1617.17 137.103 1625.9 140.502 1634.96 143.522L1636.23 139.728ZM1610.42 129.683C1602.19 125.896 1594.87 121.518 1588.44 116.557L1586 119.724C1592.69 124.888 1600.28 129.417 1608.74 133.317L1610.42 129.683ZM1588.45 116.568C1582.09 111.564 1577.06 105.762 1573.35 99.1612L1569.87 101.12C1573.85 108.207 1579.23 114.405 1585.98 119.713L1588.45 116.568ZM1573.36 99.1713C1569.7 92.5745 1567.84 84.8557 1567.84 75.9531H1563.84C1563.84 85.4256 1565.83 93.8318 1569.86 101.11L1573.36 99.1713ZM1567.84 75.9531C1567.84 67.45 1569.74 59.87 1573.5 53.1647L1570.01 51.2103C1565.89 58.5675 1563.84 66.8313 1563.84 75.9531H1567.84ZM1573.5 53.1549C1577.28 46.3092 1582.56 40.4851 1589.36 35.6802L1587.05 32.4135C1579.79 37.5462 1574.09 43.8158 1570 51.2201L1573.5 53.1549ZM1589.36 35.6772C1596.27 30.7671 1604.4 27.0156 1613.76 24.4443L1612.71 20.587C1602.95 23.2656 1594.38 27.2017 1587.04 32.4165L1589.36 35.6772ZM1613.78 24.4394C1623.14 21.7778 1633.41 20.4375 1644.59 20.4375V16.4375C1633.09 16.4375 1622.45 17.816 1612.69 20.5919L1613.78 24.4394ZM1644.59 20.4375C1659.36 20.4375 1672.29 23.0211 1683.42 28.1302L1685.08 24.4948C1673.34 19.1039 1659.83 16.4375 1644.59 16.4375V20.4375ZM1683.43 28.1383C1694.66 33.1572 1703.35 40.2863 1709.59 49.5112L1712.91 47.27C1706.21 37.37 1696.91 29.7803 1685.07 24.4867L1683.43 28.1383ZM1709.61 49.5299C1715.91 58.6236 1719.09 69.4176 1719.09 82H1723.09C1723.09 68.7074 1719.72 57.0951 1712.89 47.2514L1709.61 49.5299ZM1721.09 80H1672.02V84H1721.09V80ZM1674.02 82C1674.02 76.5584 1672.88 71.672 1670.54 67.3987L1667.03 69.32C1669 72.9218 1670.02 77.1291 1670.02 82H1674.02ZM1670.55 67.4314C1668.29 63.1106 1664.85 59.7375 1660.3 57.3134L1658.42 60.8428C1662.31 62.9187 1665.15 65.7332 1667.01 69.2874L1670.55 67.4314ZM1660.3 57.3134C1655.71 54.8661 1650.07 53.7031 1643.47 53.7031V57.7031C1649.62 57.7031 1654.57 58.7902 1658.42 60.8428L1660.3 57.3134ZM1643.47 53.7031C1637.09 53.7031 1631.59 54.6677 1627.05 56.688L1628.67 60.3432C1632.56 58.6136 1637.47 57.7031 1643.47 57.7031V53.7031ZM1627.05 56.688C1622.56 58.6844 1619.05 61.4342 1616.64 64.9888L1619.95 67.23C1621.86 64.4095 1624.73 62.0968 1628.67 60.3432L1627.05 56.688ZM1616.66 64.9658C1614.27 68.393 1613.06 72.2136 1613.06 76.375H1617.06C1617.06 73.0364 1618.01 70.0132 1619.94 67.253L1616.66 64.9658ZM1613.06 76.375C1613.06 79.8565 1614.02 83.0562 1615.93 85.9219L1619.26 83.7031C1617.79 81.5063 1617.06 79.081 1617.06 76.375H1613.06ZM1615.98 85.9925C1617.93 88.6594 1620.6 91.1081 1623.93 93.3597L1626.17 90.0466C1623.12 87.9857 1620.82 85.8406 1619.21 83.6325L1615.98 85.9925ZM1623.95 93.3745C1627.35 95.6101 1631.4 97.7257 1636.07 99.7289L1637.65 96.0523C1633.13 94.1181 1629.31 92.1086 1626.15 90.0317L1623.95 93.3745ZM1636.09 99.7346C1640.83 101.729 1646.14 103.671 1652 105.56L1653.22 101.753C1647.46 99.892 1642.26 97.9894 1637.63 96.0467L1636.09 99.7346ZM1652 105.562C1662.79 109.004 1672.35 112.855 1680.67 117.109L1682.49 113.547C1673.94 109.176 1664.18 105.246 1653.22 101.751L1652 105.562ZM1680.69 117.121C1689.08 121.269 1696.08 125.992 1701.73 131.273L1704.46 128.352C1698.48 122.758 1691.14 117.824 1682.46 113.535L1680.69 117.121ZM1701.75 131.296C1707.46 136.462 1711.74 142.329 1714.62 148.897L1718.29 147.291C1715.16 140.171 1710.54 133.85 1704.44 128.329L1701.75 131.296ZM1714.63 148.918C1717.59 155.467 1719.09 162.914 1719.09 171.297H1723.09C1723.09 162.43 1721.5 154.408 1718.28 147.27L1714.63 148.918ZM1719.09 171.297C1719.09 180.222 1717.37 188.064 1713.96 194.871L1717.54 196.66C1721.26 189.218 1723.09 180.747 1723.09 171.297H1719.09ZM1713.96 194.871C1710.54 201.705 1705.64 207.513 1699.23 212.304L1701.62 215.509C1708.51 210.362 1713.83 204.076 1717.54 196.66L1713.96 194.871ZM1699.24 212.293C1692.81 217.001 1685.07 220.609 1675.99 223.086L1677.04 226.945C1686.52 224.36 1694.72 220.561 1701.6 215.52L1699.24 212.293ZM1675.99 223.086C1666.91 225.563 1656.73 226.812 1645.44 226.812V230.812C1657.02 230.812 1667.56 229.531 1677.04 226.945L1675.99 223.086ZM1645.44 226.812C1635.11 226.812 1624.91 225.521 1614.86 222.938L1613.86 226.812C1624.24 229.479 1634.77 230.812 1645.44 230.812V226.812ZM1614.88 222.943C1604.95 220.278 1595.97 216.241 1587.91 210.839L1585.68 214.161C1594.13 219.821 1603.52 224.034 1613.84 226.807L1614.88 222.943ZM1587.92 210.848C1579.93 205.395 1573.53 198.45 1568.71 189.994L1565.23 191.975C1570.35 200.956 1577.17 208.355 1585.67 214.152L1587.92 210.848ZM1568.72 190.016C1564.04 181.554 1561.66 171.448 1561.66 159.625H1557.66C1557.66 171.99 1560.15 182.789 1565.22 191.952L1568.72 190.016ZM1559.66 161.625H1609.16V157.625H1559.66V161.625ZM1607.16 159.625C1607.16 165.789 1607.97 171.112 1609.68 175.533L1613.41 174.092C1611.93 170.263 1611.16 165.461 1611.16 159.625H1607.16ZM1609.68 175.533C1611.39 179.946 1613.92 183.572 1617.31 186.345L1619.84 183.249C1617.05 180.96 1614.9 177.929 1613.41 174.092L1609.68 175.533ZM1617.34 186.368C1620.69 189.009 1624.76 190.899 1629.48 192.081L1630.45 188.2C1626.18 187.132 1622.65 185.46 1619.82 183.226L1617.34 186.368ZM1629.52 192.09C1634.2 193.162 1639.51 193.688 1645.44 193.688V189.688C1639.74 189.688 1634.74 189.182 1630.42 188.191L1629.52 192.09ZM1645.44 193.688C1651.88 193.688 1657.26 192.778 1661.47 190.83L1659.78 187.201C1656.3 188.816 1651.56 189.688 1645.44 189.688V193.688ZM1661.5 190.813C1665.62 188.806 1668.76 186.129 1670.78 182.724L1667.34 180.682C1665.8 183.278 1663.32 185.475 1659.75 187.218L1661.5 190.813ZM1670.8 182.701C1672.76 179.296 1673.73 175.576 1673.73 171.578H1669.73C1669.73 174.893 1668.93 177.923 1667.33 180.705L1670.8 182.701ZM1795.91 21.25H1797.91V19.25H1795.91V21.25ZM1795.91 226V228H1797.91V226H1795.91ZM1746.55 226H1744.55V228H1746.55V226ZM1746.55 21.25V19.25H1744.55V21.25H1746.55ZM1918.11 21.25L1919.7 22.4644L1922.16 19.25H1918.11V21.25ZM1838.8 125.031L1840.27 126.381L1840.33 126.316L1840.39 126.246L1838.8 125.031ZM1792.39 175.797L1790.43 176.187L1791.2 180.064L1793.87 177.146L1792.39 175.797ZM1783.39 130.516L1781.72 129.415L1781.27 130.1L1781.43 130.906L1783.39 130.516ZM1813.06 85.5156L1811.41 84.383L1811.4 84.3987L1811.39 84.4147L1813.06 85.5156ZM1857.22 21.25V19.25H1856.17L1855.57 20.1174L1857.22 21.25ZM1859.75 226L1858.02 226.995L1858.59 228H1859.75V226ZM1806.88 133.75L1805.69 132.139L1804.25 133.197L1805.14 134.745L1806.88 133.75ZM1845.27 105.484L1846.98 104.45L1845.84 102.575L1844.08 103.874L1845.27 105.484ZM1918.11 226V228H1921.66L1919.82 224.965L1918.11 226ZM1793.91 21.25V226H1797.91V21.25H1793.91ZM1795.91 224H1746.55V228H1795.91V224ZM1748.55 226V21.25H1744.55V226H1748.55ZM1746.55 23.25H1795.91V19.25H1746.55V23.25ZM1916.52 20.0356L1837.21 123.817L1840.39 126.246L1919.7 22.4644L1916.52 20.0356ZM1837.32 123.682L1790.91 174.447L1793.87 177.146L1840.27 126.381L1837.32 123.682ZM1794.35 175.407L1785.35 130.126L1781.43 130.906L1790.43 176.187L1794.35 175.407ZM1785.06 131.617L1814.73 86.6166L1811.39 84.4147L1781.72 129.415L1785.06 131.617ZM1814.71 86.6482L1858.87 22.3826L1855.57 20.1174L1811.41 84.383L1814.71 86.6482ZM1857.22 23.25H1918.11V19.25H1857.22V23.25ZM1861.49 225.005L1808.61 132.755L1805.14 134.745L1858.02 226.995L1861.49 225.005ZM1808.06 135.361L1846.45 107.095L1844.08 103.874L1805.69 132.139L1808.06 135.361ZM1843.55 106.519L1916.4 227.035L1919.82 224.965L1846.98 104.45L1843.55 106.519ZM1918.11 224H1859.75V228H1918.11V224Z" fill="#37447E"/>
</g>
<defs>
<filter id="filter0_i_11_111" x="1195.02" y="18.4375" width="723.094" height="214.375" filterUnits="userSpaceOnUse" color-interpolation-filters="sRGB">
<feFlood flood-opacity="0" result="BackgroundImageFix"/>
<feBlend mode="normal" in="SourceGraphic" in2="BackgroundImageFix" result="shape"/>
<feColorMatrix in="SourceAlpha" type="matrix" values="0 0 0 0 0 0 0 0 0 0 0 0 0 0 0 0 0 0 127 0" result="hardAlpha"/>
<feOffset dy="4"/>
<feGaussianBlur stdDeviation="2"/>
<feComposite in2="hardAlpha" operator="arithmetic" k2="-1" k3="1"/>
<feColorMatrix type="matrix" values="0 0 0 0 0 0 0 0 0 0 0 0 0 0 0 0 0 0 0.25 0"/>
<feBlend mode="normal" in2="shape" result="effect1_innerShadow_11_111"/>
</filter>
</defs>
</svg>
